<?xml version="1.0" encoding="utf-8"?>
<!-- Generator: Adobe Illustrator 16.0.0, SVG Export Plug-In . SVG Version: 6.00 Build 0)  -->
<!DOCTYPE svg PUBLIC "-//W3C//DTD SVG 1.1//EN" "http://www.w3.org/Graphics/SVG/1.1/DTD/svg11.dtd">
<svg version="1.1" id="Layer_1" xmlns="http://www.w3.org/2000/svg" xmlns:xlink="http://www.w3.org/1999/xlink" x="0px" y="0px"
	 width="490.3px" height="256.9px" viewBox="0 0 490.3 256.9" enable-background="new 0 0 490.3 256.9" xml:space="preserve">
<path fill="#FACD4E" d="M479,59.5l11.4-19.7l-11.6-20.1h-22.5L444.8,0h-23.3l-11.4,19.7h-22.4L376.4,0h-23.3l-11.4,19.7h-22.4
	L308.1,0h-23.3l-11.4,19.7h-22.1L240,0h-23.3l-11.4,19.7H183L171.6,0h-23.3L137,19.7h-22.4L103.2,0H80L68.6,19.7H46.3L34.9,0H11.6
	L0,20.1l11.4,19.7L0,59.5l11.6,20.1h23.3L46.3,60h22.4l11.1,19.2L68.4,98.9L80,119h23.3l11.4-19.7h22.5l11.4-19.7h22.4L182,98.9
	l-11.4,19.7l11.4,19.7L170.6,158l11.6,20.1h23.3l11.4-19.7h22.4l11.4,19.7h22.8l11.1,19.2L273.2,217l11.6,20.1h23.3l11.4-19.7H342
	l11.4-19.7h22.4l11.4,19.7h23.1l11.4,19.7h22.5l11.4,19.7h23.3l11.6-20.1L479,217l11.4-19.7L479,177.7l11.4-19.7L479,138.3
	l11.4-19.7L479,98.9l11.4-19.7L479,59.5z M456.1,98.4L445,79.2L456.1,60h22l11.1,19.2l-11.1,19.2H456.1z M422,196.9l-11.1-19.2
	l11.1-19.2h22l11.1,19.2l-11.1,19.2H422z M387.8,177.2L376.7,158l11.1-19.2h22l11.1,19.2l-11.1,19.2H387.8z M353.7,157.5l-11.1-19.2
	l11.1-19.2h22l11.1,19.2l-11.1,19.2H353.7z M319.4,177.2L308.3,158l11.1-19.2h22l11.1,19.2l-11.1,19.2H319.4z M285.3,157.5
	l-11.1-19.2l11.1-19.2h22l11.1,19.2l-11.1,19.2H285.3z M251.3,137.8l-11.1-19.2l11.1-19.2h22l11.1,19.2l-11.1,19.2H251.3z
	 M217.2,118.1l-11.1-19.2l11.1-19.2h22l11.1,19.2l-11.1,19.2H217.2z M183,60h22l11.1,19.2L205,98.4h-22.2l-11-19.1L183,60z
	 M239.2,40.3l11.1,19.2l-11.1,19.2h-22l-11.1-19.2l11.1-19.2H239.2z M307.3,40.3l11.1,19.2l-11.1,19.2h-22l-11.1-19.2l11.1-19.2
	H307.3z M341.5,60l11.1,19.2l-11.1,19.2h-22l-11.1-19.2L319.4,60H341.5z M375.7,40.3l11.1,19.2l-11.1,19.2h-22l-11.1-19.2l11.1-19.2
	H375.7z M409.8,60l11.1,19.2l-11.1,19.2h-22l-11.1-19.2L387.8,60H409.8z M444.1,40.3l11.1,19.2l-11.1,19.2h-22l-11.1-19.2L422,40.3
	H444.1z M422,157.5l-11.1-19.2L422,119h22l11.1,19.2l-11.1,19.2H422z M387.8,137.8l-11.1-19.2l11.1-19.2h22l11.1,19.2l-11.1,19.2
	H387.8z M353.7,118.1l-11.1-19.2l11.1-19.2h22l11.1,19.2l-11.1,19.2H353.7z M319.4,137.8l-11.1-19.2l11.1-19.2h22l11.1,19.2
	l-11.1,19.2H319.4z M285.3,118.1l-11.1-19.2l11.1-19.2h22l11.1,19.2l-11.1,19.2H285.3z M251.3,98.4l-11.1-19.2L251.3,60h22
	l11.1,19.2l-11.1,19.2H251.3z M444.1,79.7l11.1,19.2l-11.1,19.2h-22l-11.1-19.2L422,79.7H444.1z M284.5,39.8l-11.1,19.2h-22
	l-11.1-19.2l11.1-19.2h22L284.5,39.8z M489.3,39.8l-11.1,19.2h-22L445,39.8l11.1-19.2h22L489.3,39.8z M422,0.9h22.2l11,19.1
	l-11.2,19.4h-22l-11.1-19.2L422,0.9z M420.9,39.8l-11.1,19.2h-22l-11.1-19.2l11.1-19.2h22L420.9,39.8z M353.7,0.9h22.2l11,19.1
	l-11.2,19.4h-22l-11.1-19.2L353.7,0.9z M352.6,39.8l-11.1,19.2h-22l-11.1-19.2l11.1-19.2h22L352.6,39.8z M285.3,0.9h22.2l11,19.1
	l-11.2,19.4h-22l-11.1-19.2L285.3,0.9z M217.2,0.9h22.2l11,19.1l-11.2,19.4h-22l-11.1-19.2L217.2,0.9z M216.1,39.8L205,59.1h-22
	l-11.1-19.2L183,20.6h22L216.1,39.8z M148.9,0.9h22.2l11,19.1l-11.2,19.4h-22l-11.1-19.2L148.9,0.9z M147.7,39.8l-11.1,19.2h-22
	l-11.1-19.2l11.1-19.2h22L147.7,39.8z M80.5,0.9h22.2l11,19.1l-11.2,19.4h-22L69.4,20.1L80.5,0.9z M12.2,0.9h22.2l11,19.1L34.2,39.4
	h-22L1,20.1L12.2,0.9z M34.4,78.8H12.2L1,59.5l11.1-19.2h22l11.2,19.4L34.4,78.8z M46.3,59.1L35.2,39.8l11.1-19.2h22l11.1,19.2
	L68.3,59.1H46.3z M80.5,40.3h22l11.1,19.2l-11.1,19.2h-22L69.4,59.5L80.5,40.3z M102.7,118.1H80.5L69.4,98.9l11.1-19.2h22l11.2,19.4
	L102.7,118.1z M136.6,98.4h-22l-11.1-19.2L114.6,60h22l11.1,19.2L136.6,98.4z M137.8,59.5l11.1-19.2h22L182,59.5l-11.1,19.2h-22
	L137.8,59.5z M182.8,99.4H205l11.1,19.2L205,137.8h-22.2l-11.1-19.2L182.8,99.4z M205,177.2h-22.2L171.7,158l11.1-19.2H205
	l11.1,19.2L205,177.2z M206.1,138.3l11.1-19.2h22l11.1,19.2l-11.1,19.2h-22L206.1,138.3z M240.1,158.1l11.2-19.4h22l11.1,19.2
	l-11.1,19.2h-22.2L240.1,158.1z M285.3,158.4h22l11.1,19.2l-11.1,19.2h-22l-11.1-19.2L285.3,158.4z M307.5,236.3h-22.2L274.2,217
	l11.1-19.2h22l11.2,19.4L307.5,236.3z M341.5,216.6h-22l-11.1-19.2l11.1-19.2h22l11.1,19.2L341.5,216.6z M342.6,177.7l11.1-19.2h22
	l11.1,19.2l-11.1,19.2h-22L342.6,177.7z M387.6,216.6l-11-19.1l11.2-19.4h22l11.1,19.2l-11.1,19.2H387.6z M410.9,217l11.1-19.2h22
	l11.1,19.2l-11.1,19.2h-22L410.9,217z M478.2,256H456l-11-19.1l11.2-19.4h22l11.1,19.2L478.2,256z M478.2,216.6h-22L445,197.3
	l11.1-19.2h22l11.1,19.2L478.2,216.6z M478.2,177.2h-22L445,158l11.1-19.2h22l11.1,19.2L478.2,177.2z M478.2,137.8h-22L445,118.6
	l11.1-19.2h22l11.1,19.2L478.2,137.8z"/>
</svg>
